<svg width="173" height="108" viewBox="0 0 173 108" fill="none" xmlns="http://www.w3.org/2000/svg">
<path d="M151.947 107H21.053C10.3727 107 1.78027 98.3273 1.78027 87.7273V20.2727C1.78027 9.59242 10.453 1 21.053 1H151.947C162.627 1 171.22 9.67273 171.22 20.2727V87.7273C171.22 98.3273 162.547 107 151.947 107Z" stroke="#FFFFFE" stroke-width="2" stroke-miterlimit="10"/>
<path d="M130.988 77.6891C118.3 77.6891 107.941 67.4103 107.941 54.6422C107.941 41.9543 118.22 31.5952 130.988 31.5952C143.676 31.5952 154.035 41.874 154.035 54.6422H130.827V45.0058" stroke="#FFFFFE" stroke-width="2" stroke-miterlimit="10" stroke-linecap="round" stroke-linejoin="round"/>
<mask id="path-3-inside-1_1_249" fill="white">
<path d="M19.6075 34.5667H14.7894V32.8001H26.5939V34.5667H21.6954V48.7001H19.6075V34.5667ZM33.0984 48.7001L32.9378 47.2546H32.8575C32.2151 48.138 31.0106 48.941 29.3242 48.941C26.9954 48.941 25.8712 47.3349 25.8712 45.6486C25.8712 42.9183 28.3606 41.3925 32.7772 41.3925V41.1516C32.7772 40.188 32.5363 38.5016 30.2075 38.5016C29.1636 38.5016 28.0394 38.8228 27.2363 39.3849L26.7545 38.0198C27.7182 37.3774 29.0833 36.9758 30.5287 36.9758C33.9818 36.9758 34.8651 39.3849 34.8651 41.6334V45.8895C34.8651 46.8531 34.9454 47.8167 35.0257 48.6198H33.0984V48.7001ZM32.7772 42.838C30.5288 42.7577 27.9591 43.1592 27.9591 45.4076C27.9591 46.7728 28.8424 47.4152 29.8863 47.4152C31.4121 47.4152 32.2954 46.4516 32.6166 45.488C32.6969 45.247 32.6969 45.0061 32.6969 44.8455V42.838H32.7772ZM37.8363 46.5319C38.4787 46.9334 39.5227 47.3349 40.5666 47.3349C42.0924 47.3349 42.8151 46.6122 42.8151 45.6486C42.8151 44.6849 42.253 44.1228 40.7272 43.5607C38.6394 42.838 37.6757 41.7137 37.6757 40.3486C37.6757 38.5016 39.2015 36.9758 41.6106 36.9758C42.7348 36.9758 43.7788 37.2971 44.4212 37.6986L43.9394 39.2243C43.4575 38.9031 42.6545 38.5819 41.6106 38.5819C40.406 38.5819 39.6833 39.3046 39.6833 40.1077C39.6833 41.0713 40.406 41.4728 41.8515 42.0349C43.8591 42.7577 44.8227 43.8016 44.8227 45.488C44.8227 47.4955 43.2969 48.941 40.5666 48.941C39.2818 48.941 38.1575 48.6198 37.3545 48.138L37.8363 46.5319ZM49.5606 42.5168C49.8818 42.1152 50.2833 41.6334 50.6045 41.2319L53.9772 37.2971H56.4666L52.05 41.9546L57.1091 48.7001H54.6197L50.6848 43.2395L49.6409 44.444V48.7001H47.553V31.9167H49.6409V42.5168H49.5606ZM29.9666 70.0607C29.8863 67.8122 29.7257 65.1622 29.7257 63.1546H29.6454C29.0833 65.0016 28.4409 67.0092 27.6379 69.1773L24.8272 76.8864H23.3015L20.7318 69.338C20.0091 67.0895 19.3666 65.0819 18.8848 63.1546H18.8045C18.7242 65.1622 18.6439 67.8122 18.4833 70.2213L18.0818 77.0471H16.1545L17.2787 61.147H19.9288L22.6591 68.8561C23.3015 70.7834 23.8636 72.5501 24.2651 74.2365H24.3454C24.7469 72.6304 25.3091 70.8637 26.0318 68.8561L28.8424 61.147H31.4924L32.456 77.0471H30.4485L29.9666 70.0607ZM42.0121 77.0471L41.8515 75.6016H41.7712C41.1287 76.4849 39.9242 77.288 38.3181 77.288C35.9894 77.288 34.8651 75.6819 34.8651 73.9955C34.8651 71.2652 37.3545 69.7395 41.7712 69.7395V69.4986C41.7712 68.5349 41.5303 66.8486 39.2015 66.8486C38.1575 66.8486 37.0333 67.1698 36.2303 67.7319L35.7484 66.3667C36.7121 65.7243 38.0772 65.3228 39.5227 65.3228C42.9757 65.3228 43.8591 67.7319 43.8591 69.9804V74.2365C43.8591 75.2001 43.9394 76.1637 44.0197 76.9668H42.0121V77.0471ZM41.6909 71.1849C39.4424 71.1046 36.8727 71.5061 36.8727 73.7546C36.8727 75.1198 37.756 75.7622 38.8 75.7622C40.3257 75.7622 41.2091 74.7986 41.5303 73.8349C41.6106 73.594 41.6106 73.3531 41.6106 73.1925V71.1849H41.6909ZM46.9909 68.6955C46.9909 67.491 46.9909 66.5274 46.9106 65.644H48.7575L48.8378 67.5713H48.9182C49.4803 66.447 50.8454 65.4031 52.6924 65.4031C54.2984 65.4031 56.7075 66.3667 56.7075 70.3016V77.1273H54.6197V70.5425C54.6197 68.6955 53.8969 67.1698 51.9697 67.1698C50.6045 67.1698 49.5606 68.1334 49.1591 69.2577C49.0788 69.4986 48.9984 69.9001 48.9984 70.2213V77.1273H46.9106V68.6955H46.9909ZM66.4242 77.0471L66.2636 75.6016H66.1833C65.5409 76.4849 64.3363 77.288 62.7303 77.288C60.4015 77.288 59.2772 75.6819 59.2772 73.9955C59.2772 71.2652 61.7666 69.7395 66.1833 69.7395V69.4986C66.1833 68.5349 65.9424 66.8486 63.6136 66.8486C62.5697 66.8486 61.4454 67.1698 60.6424 67.7319L60.1606 66.3667C61.1242 65.7243 62.4894 65.3228 63.9348 65.3228C67.3878 65.3228 68.2712 67.7319 68.2712 69.9804V74.2365C68.2712 75.2001 68.3515 76.1637 68.4318 76.9668H66.4242V77.0471ZM66.103 71.1849C63.8545 71.1046 61.2848 71.5061 61.2848 73.7546C61.2848 75.1198 62.1681 75.7622 63.2121 75.7622C64.7378 75.7622 65.6212 74.7986 65.9424 73.8349C66.0227 73.594 66.0227 73.3531 66.0227 73.1925V71.1849H66.103ZM81.3606 65.5637C81.2803 66.3667 81.2803 67.3304 81.2803 68.6955V75.3607C81.2803 78.0107 80.7984 79.6167 79.6742 80.5804C78.55 81.6243 76.9439 81.9455 75.4984 81.9455C74.1333 81.9455 72.6075 81.6243 71.7242 80.9819L72.206 79.3758C72.9288 79.8577 74.1333 80.2592 75.5787 80.2592C77.6666 80.2592 79.2727 79.1349 79.2727 76.244V74.9592H79.1924C78.55 76.0031 77.3454 76.8864 75.5787 76.8864C72.7681 76.8864 70.6803 74.4774 70.6803 71.3455C70.6803 67.491 73.1697 65.2425 75.8197 65.2425C77.8272 65.2425 78.8712 66.2864 79.353 67.2501H79.4333L79.5136 65.5637H81.3606ZM79.1924 70.0607C79.1924 69.7395 79.1924 69.4183 79.1121 69.097C78.7106 67.8925 77.7469 66.9289 76.2212 66.9289C74.2136 66.9289 72.8484 68.6152 72.8484 71.2652C72.8484 73.5137 73.9727 75.3607 76.2212 75.3607C77.506 75.3607 78.6303 74.5577 79.1121 73.2728C79.1924 72.9516 79.2727 72.5501 79.2727 72.1486V70.0607H79.1924ZM85.8576 71.6667C85.9379 74.4774 87.7045 75.6016 89.7924 75.6016C91.3182 75.6016 92.2015 75.3607 92.9242 75.0395L93.2454 76.5652C92.5227 76.8864 91.2379 77.288 89.4712 77.288C85.9379 77.288 83.85 74.9592 83.85 71.5061C83.85 68.0531 85.8575 65.3228 89.2303 65.3228C92.9242 65.3228 93.9681 68.6152 93.9681 70.7031C93.9681 71.1046 93.8879 71.4258 93.8879 71.6667H85.8576ZM91.9606 70.2213C91.9606 68.9365 91.3985 66.8486 89.0697 66.8486C86.9818 66.8486 86.0182 68.7758 85.8576 70.2213H91.9606ZM96.5378 69.1773C96.5378 67.8122 96.5378 66.688 96.4575 65.644H98.3045L98.3848 67.8925H98.4651C98.9469 66.3667 100.232 65.4031 101.597 65.4031C101.838 65.4031 101.998 65.4031 102.159 65.4834V67.4107C101.918 67.3304 101.758 67.3304 101.436 67.3304C99.9909 67.3304 98.9469 68.4546 98.6257 69.9804C98.5454 70.3016 98.5454 70.6228 98.5454 70.944V77.0471H96.5378V69.1773Z"/>
</mask>
<path d="M19.6075 34.5667H14.7894V32.8001H26.5939V34.5667H21.6954V48.7001H19.6075V34.5667ZM33.0984 48.7001L32.9378 47.2546H32.8575C32.2151 48.138 31.0106 48.941 29.3242 48.941C26.9954 48.941 25.8712 47.3349 25.8712 45.6486C25.8712 42.9183 28.3606 41.3925 32.7772 41.3925V41.1516C32.7772 40.188 32.5363 38.5016 30.2075 38.5016C29.1636 38.5016 28.0394 38.8228 27.2363 39.3849L26.7545 38.0198C27.7182 37.3774 29.0833 36.9758 30.5287 36.9758C33.9818 36.9758 34.8651 39.3849 34.8651 41.6334V45.8895C34.8651 46.8531 34.9454 47.8167 35.0257 48.6198H33.0984V48.7001ZM32.7772 42.838C30.5288 42.7577 27.9591 43.1592 27.9591 45.4076C27.9591 46.7728 28.8424 47.4152 29.8863 47.4152C31.4121 47.4152 32.2954 46.4516 32.6166 45.488C32.6969 45.247 32.6969 45.0061 32.6969 44.8455V42.838H32.7772ZM37.8363 46.5319C38.4787 46.9334 39.5227 47.3349 40.5666 47.3349C42.0924 47.3349 42.8151 46.6122 42.8151 45.6486C42.8151 44.6849 42.253 44.1228 40.7272 43.5607C38.6394 42.838 37.6757 41.7137 37.6757 40.3486C37.6757 38.5016 39.2015 36.9758 41.6106 36.9758C42.7348 36.9758 43.7788 37.2971 44.4212 37.6986L43.9394 39.2243C43.4575 38.9031 42.6545 38.5819 41.6106 38.5819C40.406 38.5819 39.6833 39.3046 39.6833 40.1077C39.6833 41.0713 40.406 41.4728 41.8515 42.0349C43.8591 42.7577 44.8227 43.8016 44.8227 45.488C44.8227 47.4955 43.2969 48.941 40.5666 48.941C39.2818 48.941 38.1575 48.6198 37.3545 48.138L37.8363 46.5319ZM49.5606 42.5168C49.8818 42.1152 50.2833 41.6334 50.6045 41.2319L53.9772 37.2971H56.4666L52.05 41.9546L57.1091 48.7001H54.6197L50.6848 43.2395L49.6409 44.444V48.7001H47.553V31.9167H49.6409V42.5168H49.5606ZM29.9666 70.0607C29.8863 67.8122 29.7257 65.1622 29.7257 63.1546H29.6454C29.0833 65.0016 28.4409 67.0092 27.6379 69.1773L24.8272 76.8864H23.3015L20.7318 69.338C20.0091 67.0895 19.3666 65.0819 18.8848 63.1546H18.8045C18.7242 65.1622 18.6439 67.8122 18.4833 70.2213L18.0818 77.0471H16.1545L17.2787 61.147H19.9288L22.6591 68.8561C23.3015 70.7834 23.8636 72.5501 24.2651 74.2365H24.3454C24.7469 72.6304 25.3091 70.8637 26.0318 68.8561L28.8424 61.147H31.4924L32.456 77.0471H30.4485L29.9666 70.0607ZM42.0121 77.0471L41.8515 75.6016H41.7712C41.1287 76.4849 39.9242 77.288 38.3181 77.288C35.9894 77.288 34.8651 75.6819 34.8651 73.9955C34.8651 71.2652 37.3545 69.7395 41.7712 69.7395V69.4986C41.7712 68.5349 41.5303 66.8486 39.2015 66.8486C38.1575 66.8486 37.0333 67.1698 36.2303 67.7319L35.7484 66.3667C36.7121 65.7243 38.0772 65.3228 39.5227 65.3228C42.9757 65.3228 43.8591 67.7319 43.8591 69.9804V74.2365C43.8591 75.2001 43.9394 76.1637 44.0197 76.9668H42.0121V77.0471ZM41.6909 71.1849C39.4424 71.1046 36.8727 71.5061 36.8727 73.7546C36.8727 75.1198 37.756 75.7622 38.8 75.7622C40.3257 75.7622 41.2091 74.7986 41.5303 73.8349C41.6106 73.594 41.6106 73.3531 41.6106 73.1925V71.1849H41.6909ZM46.9909 68.6955C46.9909 67.491 46.9909 66.5274 46.9106 65.644H48.7575L48.8378 67.5713H48.9182C49.4803 66.447 50.8454 65.4031 52.6924 65.4031C54.2984 65.4031 56.7075 66.3667 56.7075 70.3016V77.1273H54.6197V70.5425C54.6197 68.6955 53.8969 67.1698 51.9697 67.1698C50.6045 67.1698 49.5606 68.1334 49.1591 69.2577C49.0788 69.4986 48.9984 69.9001 48.9984 70.2213V77.1273H46.9106V68.6955H46.9909ZM66.4242 77.0471L66.2636 75.6016H66.1833C65.5409 76.4849 64.3363 77.288 62.7303 77.288C60.4015 77.288 59.2772 75.6819 59.2772 73.9955C59.2772 71.2652 61.7666 69.7395 66.1833 69.7395V69.4986C66.1833 68.5349 65.9424 66.8486 63.6136 66.8486C62.5697 66.8486 61.4454 67.1698 60.6424 67.7319L60.1606 66.3667C61.1242 65.7243 62.4894 65.3228 63.9348 65.3228C67.3878 65.3228 68.2712 67.7319 68.2712 69.9804V74.2365C68.2712 75.2001 68.3515 76.1637 68.4318 76.9668H66.4242V77.0471ZM66.103 71.1849C63.8545 71.1046 61.2848 71.5061 61.2848 73.7546C61.2848 75.1198 62.1681 75.7622 63.2121 75.7622C64.7378 75.7622 65.6212 74.7986 65.9424 73.8349C66.0227 73.594 66.0227 73.3531 66.0227 73.1925V71.1849H66.103ZM81.3606 65.5637C81.2803 66.3667 81.2803 67.3304 81.2803 68.6955V75.3607C81.2803 78.0107 80.7984 79.6167 79.6742 80.5804C78.55 81.6243 76.9439 81.9455 75.4984 81.9455C74.1333 81.9455 72.6075 81.6243 71.7242 80.9819L72.206 79.3758C72.9288 79.8577 74.1333 80.2592 75.5787 80.2592C77.6666 80.2592 79.2727 79.1349 79.2727 76.244V74.9592H79.1924C78.55 76.0031 77.3454 76.8864 75.5787 76.8864C72.7681 76.8864 70.6803 74.4774 70.6803 71.3455C70.6803 67.491 73.1697 65.2425 75.8197 65.2425C77.8272 65.2425 78.8712 66.2864 79.353 67.2501H79.4333L79.5136 65.5637H81.3606ZM79.1924 70.0607C79.1924 69.7395 79.1924 69.4183 79.1121 69.097C78.7106 67.8925 77.7469 66.9289 76.2212 66.9289C74.2136 66.9289 72.8484 68.6152 72.8484 71.2652C72.8484 73.5137 73.9727 75.3607 76.2212 75.3607C77.506 75.3607 78.6303 74.5577 79.1121 73.2728C79.1924 72.9516 79.2727 72.5501 79.2727 72.1486V70.0607H79.1924ZM85.8576 71.6667C85.9379 74.4774 87.7045 75.6016 89.7924 75.6016C91.3182 75.6016 92.2015 75.3607 92.9242 75.0395L93.2454 76.5652C92.5227 76.8864 91.2379 77.288 89.4712 77.288C85.9379 77.288 83.85 74.9592 83.85 71.5061C83.85 68.0531 85.8575 65.3228 89.2303 65.3228C92.9242 65.3228 93.9681 68.6152 93.9681 70.7031C93.9681 71.1046 93.8879 71.4258 93.8879 71.6667H85.8576ZM91.9606 70.2213C91.9606 68.9365 91.3985 66.8486 89.0697 66.8486C86.9818 66.8486 86.0182 68.7758 85.8576 70.2213H91.9606ZM96.5378 69.1773C96.5378 67.8122 96.5378 66.688 96.4575 65.644H98.3045L98.3848 67.8925H98.4651C98.9469 66.3667 100.232 65.4031 101.597 65.4031C101.838 65.4031 101.998 65.4031 102.159 65.4834V67.4107C101.918 67.3304 101.758 67.3304 101.436 67.3304C99.9909 67.3304 98.9469 68.4546 98.6257 69.9804C98.5454 70.3016 98.5454 70.6228 98.5454 70.944V77.0471H96.5378V69.1773Z" stroke="#FFFFFE" stroke-width="4" mask="url(#path-3-inside-1_1_249)"/>
</svg>
